<svg width="41" height="40" viewBox="0 0 41 40" fill="none" xmlns="http://www.w3.org/2000/svg">
<rect x="0.375" width="40" height="40" rx="20" fill="#C2F0C1"/>
<g clip-path="url(#clip0_1036_13653)">
<path d="M24.125 9.2C23.125 9.2 22.325 10 22.325 11C22.325 12 23.125 12.8 24.125 12.8C25.125 12.8 25.925 12 25.925 11C25.925 10 25.125 9.2 24.125 9.2ZM20.525 12.1C20.055 12.1 19.625 12.29 19.325 12.6L15.625 16.29C15.315 16.6 15.125 17 15.125 17.5C15.125 18.13 15.455 18.66 15.975 18.97L19.325 21V26H21.125V19.5L18.875 17.85L21.195 15.5L22.925 18H27.125V16.2H23.925L21.985 12.93C21.695 12.43 21.125 12.1 20.525 12.1ZM18.125 11H11.125C10.575 11 10.125 10.55 10.125 10C10.125 9.45 10.575 9 11.125 9H20.915C20.705 9.34 20.535 9.71 20.445 10.11C19.585 10.13 18.775 10.45 18.125 11ZM13.125 20C10.365 20 8.125 22.24 8.125 25C8.125 27.76 10.365 30 13.125 30C15.885 30 18.125 27.76 18.125 25C18.125 22.24 15.885 20 13.125 20ZM13.125 28.5C11.195 28.5 9.625 26.93 9.625 25C9.625 23.07 11.195 21.5 13.125 21.5C15.055 21.5 16.625 23.07 16.625 25C16.625 26.93 15.055 28.5 13.125 28.5ZM27.125 20C24.365 20 22.125 22.24 22.125 25C22.125 27.76 24.365 30 27.125 30C29.885 30 32.125 27.76 32.125 25C32.125 22.24 29.885 20 27.125 20ZM27.125 28.5C25.195 28.5 23.625 26.93 23.625 25C23.625 23.07 25.195 21.5 27.125 21.5C29.055 21.5 30.625 23.07 30.625 25C30.625 26.93 29.055 28.5 27.125 28.5ZM13.445 19H9.125C8.573 19 8.125 18.55 8.125 18C8.125 17.45 8.573 17 9.125 17H13.175C13.155 17.16 13.125 17.33 13.125 17.5C13.125 18.03 13.245 18.54 13.445 19ZM14.125 15H10.125C9.575 15 9.125 14.55 9.125 14C9.125 13.45 9.575 13 10.125 13H16.095L14.215 14.87C14.175 14.91 14.125 14.96 14.125 15Z" fill="black"/>
</g>
<defs>
<clipPath id="clip0_1036_13653">
<rect width="24" height="24" fill="white" transform="translate(8.125 8)"/>
</clipPath>
</defs>
</svg>
