<svg width="41" height="40" viewBox="0 0 41 40" fill="none" xmlns="http://www.w3.org/2000/svg">
<rect x="0.125" width="40" height="40" rx="20" fill="#5570F1"/>
<g clip-path="url(#clip0_1036_13664)">
<path d="M23.875 9.2C22.875 9.2 22.075 10 22.075 11C22.075 12 22.875 12.8 23.875 12.8C24.875 12.8 25.675 12 25.675 11C25.675 10 24.875 9.2 23.875 9.2ZM20.275 12.1C19.805 12.1 19.375 12.29 19.075 12.6L15.375 16.29C15.065 16.6 14.875 17 14.875 17.5C14.875 18.13 15.205 18.66 15.725 18.97L19.075 21V26H20.875V19.5L18.625 17.85L20.945 15.5L22.675 18H26.875V16.2H23.675L21.735 12.93C21.445 12.43 20.875 12.1 20.275 12.1ZM17.875 11H10.875C10.325 11 9.875 10.55 9.875 10C9.875 9.45 10.325 9 10.875 9H20.665C20.455 9.34 20.285 9.71 20.195 10.11C19.335 10.13 18.525 10.45 17.875 11ZM12.875 20C10.115 20 7.875 22.24 7.875 25C7.875 27.76 10.115 30 12.875 30C15.635 30 17.875 27.76 17.875 25C17.875 22.24 15.635 20 12.875 20ZM12.875 28.5C10.945 28.5 9.375 26.93 9.375 25C9.375 23.07 10.945 21.5 12.875 21.5C14.805 21.5 16.375 23.07 16.375 25C16.375 26.93 14.805 28.5 12.875 28.5ZM26.875 20C24.115 20 21.875 22.24 21.875 25C21.875 27.76 24.115 30 26.875 30C29.635 30 31.875 27.76 31.875 25C31.875 22.24 29.635 20 26.875 20ZM26.875 28.5C24.945 28.5 23.375 26.93 23.375 25C23.375 23.07 24.945 21.5 26.875 21.5C28.805 21.5 30.375 23.07 30.375 25C30.375 26.93 28.805 28.5 26.875 28.5ZM13.195 19H8.875C8.323 19 7.875 18.55 7.875 18C7.875 17.45 8.323 17 8.875 17H12.925C12.905 17.16 12.875 17.33 12.875 17.5C12.875 18.03 12.995 18.54 13.195 19ZM13.875 15H9.875C9.325 15 8.875 14.55 8.875 14C8.875 13.45 9.325 13 9.875 13H15.845L13.965 14.87C13.925 14.91 13.875 14.96 13.875 15Z" fill="white"/>
</g>
<defs>
<clipPath id="clip0_1036_13664">
<rect width="24" height="24" fill="white" transform="translate(7.875 8)"/>
</clipPath>
</defs>
</svg>
