<svg width="48" height="48" viewBox="0 0 48 48" fill="none" xmlns="http://www.w3.org/2000/svg">
<path d="M37.6201 12.5H40.3401C39.9601 11.96 39.5601 11.46 39.1401 10.96L37.6201 12.5Z" fill="#FFB664"/>
<path d="M37.04 8.83989C36.54 8.41989 36.04 8.01989 35.5 7.63989V10.3599L37.04 8.83989Z" fill="#FFB664"/>
<path d="M39.16 10.9599L45.06 5.05988C45.64 4.47988 45.64 3.51988 45.06 2.93988C44.48 2.35988 43.52 2.35988 42.94 2.93988L37.04 8.83988C37.8 9.49988 38.5 10.2199 39.16 10.9599Z" fill="#FFB664"/>
<path d="M35.5 6C35.5 5.18 34.82 4.5 34 4.5C33.2 4.5 32.56 5.14 32.52 5.92C33.56 6.42 34.56 6.98 35.5 7.64V6Z" fill="#FFB664"/>
<path d="M43.5001 14C43.5001 13.18 42.8201 12.5 42.0001 12.5H40.3401C41.0001 13.44 41.5801 14.44 42.0601 15.48C42.8601 15.44 43.5001 14.8 43.5001 14Z" fill="#FFB664"/>
<path d="M25.5 29.5001H26.1C26.88 29.5001 27.5 28.8001 27.5 27.9401C27.5 26.8601 27.2 26.7001 26.52 26.4601L25.5 26.1001V29.5001Z" fill="#FFB664"/>
<path d="M42.08 15.48C42.06 15.48 42.04 15.5 42 15.5H34C33.8 15.5 33.62 15.46 33.42 15.38C33.06 15.22 32.76 14.94 32.6 14.56C32.54 14.38 32.5 14.2 32.5 14V6C32.5 5.98 32.52 5.96 32.52 5.92C29.92 4.7 27.04 4 24 4C12.96 4 4 12.96 4 24C4 35.04 12.96 44 24 44C35.04 44 44 35.04 44 24C44 20.96 43.3 18.08 42.08 15.48ZM27.5 23.64C28.78 24.08 30.5 25.02 30.5 27.96C30.5 30.46 28.52 32.52 26.1 32.52H25.5V33.02C25.5 33.84 24.82 34.52 24 34.52C23.18 34.52 22.5 33.84 22.5 33.02V32.52H22.34C19.68 32.52 17.5 30.28 17.5 27.52C17.5 26.68 18.18 26 19 26C19.82 26 20.5 26.68 20.5 27.5C20.5 28.6 21.32 29.5 22.34 29.5H22.5V25.06L20.5 24.36C19.22 23.92 17.5 22.98 17.5 20.04C17.5 17.54 19.48 15.48 21.9 15.48H22.5V15C22.5 14.18 23.18 13.5 24 13.5C24.82 13.5 25.5 14.18 25.5 15V15.5H25.66C28.32 15.5 30.5 17.74 30.5 20.5C30.5 21.32 29.82 22 29 22C28.18 22 27.5 21.32 27.5 20.5C27.5 19.4 26.68 18.5 25.66 18.5H25.5V22.94L27.5 23.64Z" fill="#FFB664"/>
<path d="M20.5 20.06C20.5 21.14 20.8 21.3 21.48 21.54L22.5 21.9V18.5H21.9C21.14 18.5 20.5 19.2 20.5 20.06Z" fill="#FFB664"/>
</svg>
