<svg width="48" height="48" viewBox="0 0 48 48" fill="none" xmlns="http://www.w3.org/2000/svg">
<g id="vuesax/bold/people">
<g id="people">
<path id="Vector" d="M35.0601 15.54C34.9201 15.52 34.7801 15.52 34.6401 15.54C31.5401 15.44 29.0801 12.9 29.0801 9.78C29.0801 6.6 31.6601 4 34.8601 4C38.0401 4 40.6401 6.58 40.6401 9.78C40.6201 12.9 38.1601 15.44 35.0601 15.54Z" fill="#FFB664"/>
<path id="Vector_2" d="M41.58 29.4001C39.34 30.9001 36.1999 31.4601 33.2999 31.0801C34.0599 29.4401 34.4599 27.6201 34.4799 25.7001C34.4799 23.7001 34.04 21.8001 33.2 20.1401C36.16 19.7401 39.3 20.3001 41.56 21.8001C44.72 23.8801 44.72 27.3001 41.58 29.4001Z" fill="#FFB664"/>
<path id="Vector_3" d="M12.8801 15.54C13.0201 15.52 13.1601 15.52 13.3001 15.54C16.4001 15.44 18.8601 12.9 18.8601 9.78C18.8601 6.58 16.2801 4 13.0801 4C9.90007 4 7.32007 6.58 7.32007 9.78C7.32007 12.9 9.78007 15.44 12.8801 15.54Z" fill="#FFB664"/>
<path id="Vector_4" d="M13.1 25.7C13.1 27.64 13.52 29.48 14.28 31.14C11.46 31.44 8.51999 30.84 6.35999 29.42C3.19999 27.32 3.19999 23.9 6.35999 21.8C8.49999 20.36 11.52 19.78 14.36 20.1C13.54 21.78 13.1 23.68 13.1 25.7Z" fill="#FFB664"/>
<path id="Vector_5" d="M24.2401 31.74C24.0801 31.72 23.9001 31.72 23.7201 31.74C20.0401 31.62 17.1001 28.6 17.1001 24.88C17.1201 21.08 20.1801 18 24.0001 18C27.8001 18 30.8801 21.08 30.8801 24.88C30.8601 28.6 27.9401 31.62 24.2401 31.74Z" fill="#FFB664"/>
<path id="Vector_6" d="M17.7401 35.88C14.7201 37.9 14.7201 41.22 17.7401 43.22C21.1801 45.52 26.8201 45.52 30.2601 43.22C33.2801 41.2 33.2801 37.88 30.2601 35.88C26.8401 33.58 21.2001 33.58 17.7401 35.88Z" fill="#FFB664"/>
</g>
</g>
</svg>
